<svg width="707" height="707" viewBox="0 0 707 707" fill="none" xmlns="http://www.w3.org/2000/svg">
<path d="M94.9201 2.13486C39.1079 -11.0745 -11.0745 39.1078 2.13486 94.92L132.823 647.106C146.726 705.847 219.686 726.551 262.37 683.867L347.623 598.614C359.754 586.484 351.306 564.281 334.748 559.795C304.887 551.705 276.672 535.938 253.228 512.493C181.633 440.899 181.633 324.822 253.228 253.228C324.822 181.633 440.899 181.633 512.493 253.228C535.938 276.672 551.705 304.887 559.795 334.748C564.281 351.306 586.484 359.754 598.614 347.623L683.868 262.37C726.551 219.686 705.848 146.726 647.106 132.823L94.9201 2.13486Z" fill="white"/>
<path d="M448.468 317.679C484.934 354.145 484.934 413.269 448.468 449.735C412.001 486.201 352.878 486.201 316.412 449.735C279.946 413.269 279.946 354.145 316.412 317.679C352.878 281.213 412.001 281.213 448.468 317.679Z" fill="white"/>
<path d="M450.316 565.155C457.377 560.073 464.307 557.697 471.105 558.027C477.836 558.291 483.809 561.03 489.023 566.244C493.049 570.27 495.721 575.054 497.041 580.598C498.295 586.076 497.767 592.016 495.457 598.417C493.214 604.753 488.957 611.056 482.687 617.325C477.803 622.209 472.359 626.4 466.353 629.898C460.347 633.263 454.507 635.408 448.831 636.332L442.792 617.82C447.412 617.16 451.999 615.675 456.552 613.366C461.106 610.924 465.198 607.888 468.828 604.258C472.854 600.232 475.262 596.305 476.054 592.478C476.78 588.584 475.724 585.218 472.887 582.38C467.211 576.704 460.05 578.189 451.405 586.835L444.079 594.16L433.487 583.568L431.606 553.177L402.105 582.677L389.236 569.808L437.743 521.3L448.138 531.695L450.316 565.155Z" fill="white"/>
<path d="M517.414 493.305C521.836 488.883 526.753 485.748 532.164 483.9C537.576 482.052 542.988 481.722 548.4 482.91C553.745 484.032 558.563 486.738 562.853 491.028C567.473 495.648 570.376 500.861 571.564 506.669C572.752 512.477 572.29 518.35 570.178 524.29C568.067 530.098 564.569 535.444 559.685 540.327C549.984 550.029 539.424 554.649 528.007 554.187C516.589 553.725 505.37 547.983 494.348 536.962C486.495 529.108 481.248 520.891 478.608 512.312C475.968 503.732 475.836 495.351 478.212 487.167C480.654 478.917 485.373 471.295 492.368 464.299C496.064 460.603 500.024 457.502 504.248 454.994C508.472 452.354 512.53 450.605 516.424 449.747L522.265 467.467C516.523 468.589 511.046 471.757 505.832 476.971C499.958 482.844 497.021 489.213 497.021 496.077C497.021 502.94 500.156 509.771 506.426 516.569C506.426 508.385 510.089 500.63 517.414 493.305ZM546.816 529.24C550.248 525.808 552.095 522.112 552.359 518.152C552.689 514.127 551.27 510.53 548.103 507.362C544.935 504.194 541.338 502.775 537.312 503.105C533.286 503.303 529.492 505.184 525.928 508.748C522.43 512.246 520.549 516.107 520.285 520.33C519.955 524.488 521.308 528.085 524.344 531.121C527.38 534.157 530.943 535.543 535.035 535.279C539.127 535.015 543.054 533.002 546.816 529.24Z" fill="white"/>
<path d="M631.33 468.683C625.588 474.425 619.054 478.12 611.729 479.77C604.403 481.42 596.78 480.859 588.861 478.087C580.941 475.184 573.253 470.003 565.795 462.545C558.337 455.088 553.19 447.432 550.352 439.578C547.514 431.593 546.92 423.937 548.57 416.611C550.22 409.286 553.915 402.752 559.657 397.01C565.399 391.269 571.933 387.573 579.258 385.923C586.584 384.273 594.206 384.9 602.126 387.804C610.046 390.576 617.734 395.691 625.192 403.148C632.649 410.606 637.797 418.327 640.635 426.313C643.473 434.167 644.067 441.756 642.417 449.082C640.767 456.407 637.071 462.941 631.33 468.683ZM617.767 455.121C621.991 450.897 623.476 445.782 622.222 439.776C621.034 433.705 616.645 426.874 609.056 419.284C601.466 411.695 594.635 407.306 588.564 406.118C582.558 404.864 577.443 406.349 573.219 410.573C569.062 414.731 567.577 419.845 568.765 425.917C570.019 431.923 574.44 438.72 582.03 446.31C589.62 453.9 596.417 458.321 602.423 459.575C608.495 460.763 613.609 459.278 617.767 455.121Z" fill="white"/>
</svg>
