<svg width="290" height="238" viewBox="0 0 290 238" fill="none" xmlns="http://www.w3.org/2000/svg">
<path d="M38.9553 57.1799C32.5475 55.6633 26.786 61.4248 28.3026 67.8326L43.3071 131.23C44.9032 137.974 53.2798 140.351 58.1804 135.45L67.9684 125.662C69.3611 124.269 68.3912 121.72 66.4901 121.205C63.0618 120.276 59.8224 118.466 57.1307 115.774C48.911 107.555 48.911 94.2278 57.1307 86.008C65.3505 77.7882 78.6774 77.7882 86.8972 86.008C89.5889 88.6997 91.3992 91.9391 92.328 95.3674C92.8431 97.2685 95.3921 98.2384 96.7848 96.8457L106.573 87.0577C111.473 82.1571 109.096 73.7805 102.352 72.1843L38.9553 57.1799Z" fill="#F4F4F4"/>
<circle cx="71.9653" cy="100.919" r="10.7207" transform="rotate(-45 71.9653 100.919)" fill="#F4F4F4"/>
<path d="M137.46 85C139.28 85 140.86 85.3 142.2 85.9C143.56 86.5 144.6 87.36 145.32 88.48C146.04 89.6 146.4 90.93 146.4 92.47C146.4 93.99 146.04 95.32 145.32 96.46C144.6 97.58 143.56 98.44 142.2 99.04C140.86 99.64 139.28 99.94 137.46 99.94H132.72V106H128.82V85H137.46ZM137.28 96.64C138.98 96.64 140.27 96.28 141.15 95.56C142.03 94.84 142.47 93.81 142.47 92.47C142.47 91.13 142.03 90.1 141.15 89.38C140.27 88.66 138.98 88.3 137.28 88.3H132.72V96.64H137.28ZM165.081 89.98L157.581 107.29C156.881 109.03 156.031 110.25 155.031 110.95C154.031 111.67 152.821 112.03 151.401 112.03C150.601 112.03 149.811 111.9 149.031 111.64C148.251 111.38 147.611 111.02 147.111 110.56L148.611 107.8C148.971 108.14 149.391 108.41 149.871 108.61C150.371 108.81 150.871 108.91 151.371 108.91C152.031 108.91 152.571 108.74 152.991 108.4C153.431 108.06 153.831 107.49 154.191 106.69L154.461 106.06L147.471 89.98H151.371L156.411 101.83L161.481 89.98H165.081ZM182.132 89.98L175.262 106H171.392L164.522 89.98H168.422L173.402 101.86L178.532 89.98H182.132ZM191.236 106.21C189.616 106.21 188.156 105.86 186.856 105.16C185.556 104.46 184.536 103.49 183.796 102.25C183.076 100.99 182.716 99.57 182.716 97.99C182.716 96.41 183.076 95 183.796 93.76C184.536 92.52 185.556 91.55 186.856 90.85C188.156 90.15 189.616 89.8 191.236 89.8C192.876 89.8 194.346 90.15 195.646 90.85C196.946 91.55 197.956 92.52 198.676 93.76C199.416 95 199.786 96.41 199.786 97.99C199.786 99.57 199.416 100.99 198.676 102.25C197.956 103.49 196.946 104.46 195.646 105.16C194.346 105.86 192.876 106.21 191.236 106.21ZM191.236 103C192.616 103 193.756 102.54 194.656 101.62C195.556 100.7 196.006 99.49 196.006 97.99C196.006 96.49 195.556 95.28 194.656 94.36C193.756 93.44 192.616 92.98 191.236 92.98C189.856 92.98 188.716 93.44 187.816 94.36C186.936 95.28 186.496 96.49 186.496 97.99C186.496 99.49 186.936 100.7 187.816 101.62C188.716 102.54 189.856 103 191.236 103ZM213.002 105.13C212.562 105.49 212.022 105.76 211.382 105.94C210.762 106.12 210.102 106.21 209.402 106.21C207.642 106.21 206.282 105.75 205.322 104.83C204.362 103.91 203.882 102.57 203.882 100.81V93.1H201.242V90.1H203.882V86.44H207.632V90.1H211.922V93.1H207.632V100.72C207.632 101.5 207.822 102.1 208.202 102.52C208.582 102.92 209.132 103.12 209.852 103.12C210.692 103.12 211.392 102.9 211.952 102.46L213.002 105.13ZM223.887 93.67C225.827 93.91 227.307 94.57 228.327 95.65C229.347 96.73 229.857 98.08 229.857 99.7C229.857 100.92 229.547 102.03 228.927 103.03C228.307 104.03 227.367 104.83 226.107 105.43C224.867 106.01 223.347 106.3 221.547 106.3C220.047 106.3 218.597 106.09 217.197 105.67C215.817 105.23 214.637 104.63 213.657 103.87L215.337 100.84C216.097 101.48 217.017 101.99 218.097 102.37C219.197 102.73 220.327 102.91 221.487 102.91C222.867 102.91 223.947 102.63 224.727 102.07C225.527 101.49 225.927 100.71 225.927 99.73C225.927 98.75 225.547 97.99 224.787 97.45C224.047 96.89 222.907 96.61 221.367 96.61H219.447V93.94L224.217 88.27H214.677V85H228.987V87.61L223.887 93.67ZM241.948 93.04C243.328 93.04 244.568 93.31 245.668 93.85C246.768 94.37 247.628 95.12 248.248 96.1C248.868 97.08 249.178 98.21 249.178 99.49C249.178 100.85 248.838 102.05 248.158 103.09C247.478 104.11 246.558 104.9 245.398 105.46C244.238 106.02 242.938 106.3 241.498 106.3C238.618 106.3 236.378 105.4 234.778 103.6C233.198 101.8 232.408 99.22 232.408 95.86C232.408 93.5 232.838 91.49 233.698 89.83C234.558 88.15 235.758 86.88 237.298 86.02C238.858 85.14 240.658 84.7 242.698 84.7C243.778 84.7 244.788 84.82 245.728 85.06C246.688 85.28 247.518 85.61 248.218 86.05L246.778 88.99C245.738 88.31 244.408 87.97 242.788 87.97C240.768 87.97 239.188 88.59 238.048 89.83C236.908 91.07 236.338 92.86 236.338 95.2V95.23C236.958 94.51 237.748 93.97 238.708 93.61C239.668 93.23 240.748 93.04 241.948 93.04ZM241.288 103.24C242.508 103.24 243.498 102.92 244.258 102.28C245.018 101.62 245.398 100.75 245.398 99.67C245.398 98.57 245.018 97.7 244.258 97.06C243.498 96.42 242.478 96.1 241.198 96.1C239.938 96.1 238.908 96.44 238.108 97.12C237.328 97.8 236.938 98.66 236.938 99.7C236.938 100.72 237.318 101.57 238.078 102.25C238.858 102.91 239.928 103.24 241.288 103.24ZM259.976 106.3C258.296 106.3 256.796 105.88 255.476 105.04C254.156 104.18 253.116 102.94 252.356 101.32C251.596 99.68 251.216 97.74 251.216 95.5C251.216 93.26 251.596 91.33 252.356 89.71C253.116 88.07 254.156 86.83 255.476 85.99C256.796 85.13 258.296 84.7 259.976 84.7C261.656 84.7 263.156 85.13 264.476 85.99C265.816 86.83 266.866 88.07 267.626 89.71C268.386 91.33 268.766 93.26 268.766 95.5C268.766 97.74 268.386 99.68 267.626 101.32C266.866 102.94 265.816 104.18 264.476 105.04C263.156 105.88 261.656 106.3 259.976 106.3ZM259.976 102.91C261.476 102.91 262.656 102.29 263.516 101.05C264.396 99.81 264.836 97.96 264.836 95.5C264.836 93.04 264.396 91.19 263.516 89.95C262.656 88.71 261.476 88.09 259.976 88.09C258.496 88.09 257.316 88.71 256.436 89.95C255.576 91.19 255.146 93.04 255.146 95.5C255.146 97.96 255.576 99.81 256.436 101.05C257.316 102.29 258.496 102.91 259.976 102.91Z" fill="#F4F4F4"/>
</svg>
